<?xml version="1.0" standalone="no"?><!DOCTYPE svg PUBLIC "-//W3C//DTD SVG 1.1//EN" "http://www.w3.org/Graphics/SVG/1.1/DTD/svg11.dtd"><svg t="1495703105391" class="icon" style="" viewBox="0 0 1024 1024" version="1.1" xmlns="http://www.w3.org/2000/svg" p-id="2168" xmlns:xlink="http://www.w3.org/1999/xlink" width="200" height="200"><defs><style type="text/css"></style></defs><path d="M797 359.451C797 401.038 763.086 435 721.499 435h-47.132C632.78 435 599 401.038 599 359.451V277H421v82.451C421 401.038 386.517 435 344.93 435h-47.132C256.211 435 223 401.038 223 359.451V277H98v630h829V277H797v82.451zM336.949 798H176.044c-9.305 0-16.849-7.695-16.849-17s7.543-17 16.849-17h160.905c9.305 0 16.849 7.695 16.849 17s-7.543 17-16.849 17z m0-116H176.044c-9.305 0-16.849-7.695-16.849-17s7.543-17 16.849-17h160.905c9.305 0 16.849 7.695 16.849 17s-7.543 17-16.849 17z m0-117H176.044c-9.305 0-16.849-8.195-16.849-17.5s7.543-17.5 16.849-17.5h160.905c9.305 0 16.849 8.195 16.849 17.5s-7.543 17.5-16.849 17.5z m255.258 233H431.302c-9.305 0-16.849-7.695-16.849-17s7.543-17 16.849-17h160.905c9.305 0 16.849 7.695 16.849 17s-7.543 17-16.849 17z m0-116H431.302c-9.305 0-16.849-7.695-16.849-17s7.543-17 16.849-17h160.905c9.305 0 16.849 7.695 16.849 17s-7.543 17-16.849 17z m0-117H431.302c-9.305 0-16.849-8.195-16.849-17.5s7.543-17.5 16.849-17.5h160.905c9.305 0 16.849 8.195 16.849 17.5s-7.543 17.5-16.849 17.5z m256.101 233H687.403c-9.305 0-16.849-7.695-16.849-17s7.543-17 16.849-17h160.905c9.305 0 16.849 7.695 16.849 17s-7.544 17-16.849 17z m0-116H687.403c-9.305 0-16.849-7.695-16.849-17s7.543-17 16.849-17h160.905c9.305 0 16.849 7.695 16.849 17s-7.544 17-16.849 17z m16.849-134.5c0 9.305-7.543 17.5-16.849 17.5H687.403c-9.305 0-16.849-8.195-16.849-17.5s7.543-17.5 16.849-17.5h160.905c9.305 0 16.849 8.195 16.849 17.5z" fill="#53AFFD" p-id="2169"></path><path d="M928.339 243H797v-75.579C797 125.834 763.086 92 721.499 92h-47.132C632.78 92 599 125.834 599 167.421V243H421v-75.579C421 125.834 386.517 92 344.93 92h-47.132C256.211 92 223 125.834 223 167.421V243H96.013C78.361 243 64 257.999 64 275.651v633.512C64 926.815 78.361 941 96.013 941H928.34c17.651 0 31.66-14.185 31.66-31.837V275.651C960 257.999 945.991 243 928.339 243zM927 907H98V277h125v82.451C223 401.038 256.211 435 297.798 435h47.132c41.587 0 76.07-33.962 76.07-75.549V277h178v82.451C599 401.038 632.78 435 674.367 435h47.132C763.086 435 797 401.038 797 359.451V277h130v630zM387 360.277C387 383.32 368.32 402 345.277 402h-46.554C275.68 402 257 383.32 257 360.277V167.723C257 144.68 275.68 126 298.723 126h46.554C368.32 126 387 144.68 387 167.723v192.554z m376 0C763 383.32 744.32 402 721.277 402h-46.554C651.68 402 633 383.32 633 360.277V167.723C633 144.68 651.68 126 674.723 126h46.554C744.32 126 763 144.68 763 167.723v192.554z" fill="" p-id="2170"></path><path d="M387 167.723C387 144.68 368.32 126 345.277 126h-46.554C275.68 126 257 144.68 257 167.723v192.554C257 383.32 275.68 402 298.723 402h46.554C368.32 402 387 383.32 387 360.277V167.723zM763 167.723C763 144.68 744.32 126 721.277 126h-46.554C651.68 126 633 144.68 633 167.723v192.554C633 383.32 651.68 402 674.723 402h46.554C744.32 402 763 383.32 763 360.277V167.723z" fill="#FFFFFF" p-id="2171"></path><path d="M336.949 530H176.044c-9.305 0-16.849 8.195-16.849 17.5s7.543 17.5 16.849 17.5h160.905c9.305 0 16.849-8.195 16.849-17.5s-7.543-17.5-16.849-17.5zM592.207 530H431.302c-9.305 0-16.849 8.195-16.849 17.5s7.543 17.5 16.849 17.5h160.905c9.305 0 16.849-8.195 16.849-17.5s-7.543-17.5-16.849-17.5zM687.403 530c-9.305 0-16.849 8.195-16.849 17.5s7.543 17.5 16.849 17.5h160.905c9.305 0 16.849-8.195 16.849-17.5s-7.543-17.5-16.849-17.5H687.403zM336.949 648H176.044c-9.305 0-16.849 7.695-16.849 17s7.543 17 16.849 17h160.905c9.305 0 16.849-7.695 16.849-17s-7.543-17-16.849-17zM592.207 648H431.302c-9.305 0-16.849 7.695-16.849 17s7.543 17 16.849 17h160.905c9.305 0 16.849-7.695 16.849-17s-7.543-17-16.849-17zM848.308 648H687.403c-9.305 0-16.849 7.695-16.849 17s7.543 17 16.849 17h160.905c9.305 0 16.849-7.695 16.849-17s-7.544-17-16.849-17zM336.949 764H176.044c-9.305 0-16.849 7.695-16.849 17s7.543 17 16.849 17h160.905c9.305 0 16.849-7.695 16.849-17s-7.543-17-16.849-17zM592.207 764H431.302c-9.305 0-16.849 7.695-16.849 17s7.543 17 16.849 17h160.905c9.305 0 16.849-7.695 16.849-17s-7.543-17-16.849-17zM848.308 764H687.403c-9.305 0-16.849 7.695-16.849 17s7.543 17 16.849 17h160.905c9.305 0 16.849-7.695 16.849-17s-7.544-17-16.849-17z" fill="" p-id="2172"></path></svg>