<?xml version="1.0" standalone="no"?><!DOCTYPE svg PUBLIC "-//W3C//DTD SVG 1.1//EN" "http://www.w3.org/Graphics/SVG/1.1/DTD/svg11.dtd"><svg t="1495703150900" class="icon" style="" viewBox="0 0 1024 1024" version="1.1" xmlns="http://www.w3.org/2000/svg" p-id="3766" xmlns:xlink="http://www.w3.org/1999/xlink" width="200" height="200"><defs><style type="text/css"></style></defs><path d="M101.291 802.812c2.439 2.525 5.852 4.188 9.631 4.188h10.893l-10.893-0.88c-3.624 0-6.955-1.268-9.631-3.308zM921.252 269.02c-1.823-5.242-6.8-9.02-12.654-9.02h-1.676c6.317 0 11.758 3.688 14.33 9.02zM744.57 260l-159.535-92h-150.55L274.95 260H144v547h730V260H744.57z m-89.132 420.611c-39.248 39.248-91.43 60.863-146.935 60.863s-107.687-21.615-146.935-60.863c-39.248-39.248-60.863-91.43-60.863-146.935s21.615-107.687 60.863-146.935c39.248-39.248 91.43-60.863 146.935-60.863s107.688 21.615 146.935 60.863c39.248 39.248 60.863 91.43 60.863 146.935s-21.615 107.687-60.863 146.935zM906.922 806.077L896.03 807h12.568c6.609 0 12.103-4.855 13.196-11.157a15.875 15.875 0 0 1-14.872 10.234z" fill="#53AFFD" p-id="3767"></path><path d="M908.598 226H753.556l-159.535-92H425.499l-159.535 92H110.922C85.049 226 64 247.218 64 273.091v520.333C64 819.296 85.049 840 110.922 840h797.676C934.471 840 956 819.296 956 793.423V273.091C956 247.218 934.471 226 908.598 226zM923 790.072c0 1.99-0.46 3.972-1.127 5.729-1.092 6.302-6.665 11.2-13.274 11.2H896.03L874 808.505V807H144v1.505L121.815 807h-10.893c-3.78 0-7.193-1.664-9.632-4.188a16.041 16.041 0 0 1-6.29-12.74V275.604c0-8.792 7.13-15.604 15.922-15.604h164.029l159.535-92h150.549l159.535 92h164.029c5.855 0 10.911 3.621 12.733 8.862 1.009 2.09 1.669 4.266 1.669 6.742v514.468z" fill="" p-id="3768"></path><path d="M508.503 359.394c-96.099 0-174.282 78.183-174.282 174.282s78.183 174.282 174.282 174.282 174.282-78.183 174.282-174.282-78.182-174.282-174.282-174.282z m0 307.088c-73.23 0-132.806-59.577-132.806-132.806S435.273 400.87 508.503 400.87 641.31 460.446 641.31 533.676s-59.577 132.806-132.807 132.806z" fill="#FFFFFF" p-id="3769"></path><path d="M508.503 325.878c-55.505 0-107.687 21.615-146.935 60.863-39.248 39.248-60.863 91.43-60.863 146.935s21.615 107.688 60.863 146.935c39.248 39.248 91.43 60.863 146.935 60.863s107.688-21.615 146.935-60.863c39.248-39.248 60.863-91.43 60.863-146.935s-21.615-107.687-60.863-146.935c-39.247-39.248-91.43-60.863-146.935-60.863z m0 382.08c-96.099 0-174.282-78.183-174.282-174.282s78.183-174.282 174.282-174.282 174.282 78.183 174.282 174.282-78.182 174.282-174.282 174.282z" fill="" p-id="3770"></path><path d="M508.503 434.385c-54.749 0-99.291 44.541-99.291 99.291 0 54.749 44.542 99.291 99.291 99.291 54.749 0 99.291-44.541 99.291-99.291 0-54.749-44.542-99.291-99.291-99.291z" fill="#FFFFFF" p-id="3771"></path><path d="M508.503 400.87c-73.23 0-132.806 59.577-132.806 132.806s59.576 132.806 132.806 132.806S641.31 606.905 641.31 533.676 581.733 400.87 508.503 400.87z m0 232.096c-54.749 0-99.291-44.541-99.291-99.291 0-54.749 44.542-99.291 99.291-99.291 54.749 0 99.291 44.541 99.291 99.291s-44.542 99.291-99.291 99.291z" fill="" p-id="3772"></path><path d="M110.922 260C102.13 260 95 266.812 95 275.604v514.467c0 5.168 2.474 9.747 6.29 12.655a15.83 15.83 0 0 0 9.632 3.265l11.093 0.838L144 808.505V260h-33.078z" fill="#FFFFFF" p-id="3773"></path><path d="M906.922 260H874V808.506l21.907-1.676 10.954-0.838c6.802 0 12.701-4.274 14.981-10.277 0.667-1.756 1.158-3.653 1.158-5.643V275.604c0-2.476-0.66-4.652-1.669-6.742-2.572-5.332-8.092-8.862-14.409-8.862z" fill="#1083EA" p-id="3774"></path></svg>